<?xml version="1.0" standalone="no"?>
<!DOCTYPE svg PUBLIC "-//W3C//DTD SVG 20010904//EN"
 "http://www.w3.org/TR/2001/REC-SVG-20010904/DTD/svg10.dtd">
<svg version="1.0" xmlns="http://www.w3.org/2000/svg"
 width="300.000000pt" height="420.000000pt" viewBox="0 0 300.000000 420.000000"
 preserveAspectRatio="xMidYMid meet">
<metadata>
Created by potrace 1.10, written by Peter Selinger 2001-2011
</metadata>
<g transform="translate(0.000000,420.000000) scale(0.100000,-0.100000)"
fill="#000000" stroke="none">
<path d="M323 2423 c20 -2 54 -2 75 0 20 2 3 4 -38 4 -41 0 -58 -2 -37 -4z"/>
<path d="M236 2411 c-3 -4 6 -6 19 -3 14 2 25 6 25 8 0 8 -39 4 -44 -5z"/>
<path d="M440 2416 c0 -2 11 -6 25 -8 13 -3 22 -1 19 3 -5 9 -44 13 -44 5z"/>
<path d="M660 2160 l0 -260 90 0 90 0 0 100 0 100 75 0 75 0 0 -100 0 -100 90
0 90 0 0 260 0 260 -90 0 -90 0 0 -90 0 -90 -75 0 -75 0 0 90 0 90 -90 0 -90
0 0 -260z m170 160 l0 -90 85 0 85 0 0 90 0 90 80 0 80 0 0 -250 0 -250 -80 0
-80 0 0 100 0 100 -85 0 -85 0 0 -100 0 -100 -80 0 -80 0 0 250 0 250 80 0 80
0 0 -90z"/>
<path d="M1473 2413 l217 -3 0 -50 0 -50 -136 0 -135 0 3 -42 3 -43 123 -3
122 -3 0 -49 0 -50 -125 0 -125 0 0 -50 0 -50 135 0 135 0 0 -55 0 -55 -217
-3 -218 -2 223 -3 222 -2 0 65 0 65 -135 0 -135 0 0 40 0 39 123 3 122 3 3 58
3 57 -126 0 -125 0 0 35 0 34 133 3 132 3 3 58 3 57 -223 -2 -223 -3 218 -2z"/>
<path d="M1780 2160 l0 -260 183 1 c100 0 190 3 199 7 10 4 -70 6 -177 4
l-195 -4 0 252 0 251 184 -3 c101 -2 179 0 173 4 -7 4 -92 8 -189 8 l-178 0 0
-260z"/>
<path d="M2548 2413 l93 -4 11 -30 c6 -16 12 -28 14 -26 2 2 -1 18 -7 35 l-11
32 -96 -2 -97 -2 93 -3z"/>
<path d="M183 2378 c-11 -13 -23 -30 -27 -38 -4 -8 1 -5 11 7 10 12 27 29 38
37 11 9 15 16 9 16 -6 0 -20 -10 -31 -22z"/>
<path d="M512 2384 c10 -10 20 -15 24 -12 3 4 -5 12 -18 18 -22 12 -22 12 -6
-6z"/>
<path d="M2199 2365 c30 -35 33 -43 29 -87 -3 -29 -2 -44 3 -36 25 38 -1 127
-44 149 -17 10 -15 4 12 -26z"/>
<path d="M2441 2369 c-13 -39 -14 -46 -2 -33 9 10 24 64 17 64 -2 0 -9 -14
-15 -31z"/>
<path d="M551 2340 c14 -31 19 -36 19 -24 0 6 -7 19 -16 30 -14 18 -14 18 -3
-6z"/>
<path d="M2675 2318 c4 -13 11 -27 16 -33 5 -5 4 5 -2 23 -12 36 -24 44 -14
10z"/>
<path d="M320 2326 c0 -2 15 -6 34 -8 19 -2 32 0 30 4 -5 8 -64 12 -64 4z"/>
<path d="M138 2297 c-3 -19 -2 -25 4 -19 6 6 8 18 6 28 -3 14 -5 12 -10 -9z"/>
<path d="M293 2305 c-3 -9 -3 -18 -1 -21 3 -3 8 4 11 16 6 23 -1 27 -10 5z"/>
<path d="M400 2301 c0 -5 5 -13 10 -16 6 -3 10 -2 10 4 0 5 -4 13 -10 16 -5 3
-10 2 -10 -4z"/>
<path d="M1943 2265 c0 -27 2 -38 4 -22 2 15 2 37 0 50 -2 12 -4 0 -4 -28z"/>
<path d="M2040 2300 c20 -13 33 -13 25 0 -3 6 -14 10 -23 10 -15 0 -15 -2 -2
-10z"/>
<path d="M2410 2286 c-15 -39 -12 -46 6 -13 9 16 13 31 10 34 -3 3 -10 -6 -16
-21z"/>
<path d="M570 2282 c0 -8 -26 -13 -77 -14 l-78 -2 74 -3 c69 -4 105 6 88 24
-4 3 -7 1 -7 -5z"/>
<path d="M2071 2264 c0 -11 3 -14 6 -6 3 7 2 16 -1 19 -3 4 -6 -2 -5 -13z"/>
<path d="M310 2260 c8 -5 20 -10 25 -10 6 0 3 5 -5 10 -8 5 -19 10 -25 10 -5
0 -3 -5 5 -10z"/>
<path d="M2542 2243 c-16 -43 -24 -73 -18 -73 3 0 10 19 17 43 10 35 13 39 20
22 5 -13 8 -15 8 -5 0 8 -3 21 -8 28 -6 10 -11 6 -19 -15z"/>
<path d="M141 2244 c0 -11 3 -14 6 -6 3 7 2 16 -1 19 -3 4 -6 -2 -5 -13z"/>
<path d="M2706 2240 c3 -14 11 -32 16 -40 6 -10 7 -7 2 10 -3 14 -11 32 -16
40 -6 10 -7 7 -2 -10z"/>
<path d="M380 2241 c8 -4 31 -11 50 -14 21 -4 29 -3 20 2 -8 4 -31 11 -50 14
-21 4 -29 3 -20 -2z"/>
<path d="M2381 2209 c-6 -18 -9 -34 -7 -36 2 -2 9 10 15 28 6 18 9 34 7 36 -2
2 -9 -10 -15 -28z"/>
<path d="M150 2213 c0 -5 12 -20 28 -34 l27 -24 -25 30 c-14 17 -26 32 -27 34
-2 2 -3 0 -3 -6z"/>
<path d="M494 2208 c80 -54 106 -106 87 -175 -6 -20 -9 -39 -6 -41 2 -2 9 14
15 37 20 74 -13 143 -83 176 -18 8 -24 10 -13 3z"/>
<path d="M2199 2203 c-13 -16 -12 -17 4 -4 9 7 17 15 17 17 0 8 -8 3 -21 -13z"/>
<path d="M2166 2181 c-3 -5 1 -11 9 -14 9 -4 12 -1 8 9 -6 16 -10 17 -17 5z"/>
<path d="M2581 2170 c0 -8 6 -28 14 -45 l14 -30 -6 30 c-7 38 -22 68 -22 45z"/>
<path d="M2736 2160 c3 -14 11 -32 16 -40 6 -10 7 -7 2 10 -3 14 -11 32 -16
40 -6 10 -7 7 -2 -10z"/>
<path d="M224 2146 c11 -9 24 -16 30 -16 12 0 7 5 -24 19 -24 11 -24 11 -6 -3z"/>
<path d="M2219 2136 c14 -14 27 -26 29 -26 10 0 -26 44 -39 48 -8 3 -3 -7 10
-22z"/>
<path d="M2351 2129 c-13 -39 -14 -46 -2 -33 9 10 24 64 17 64 -2 0 -9 -14
-15 -31z"/>
<path d="M2506 2134 c-4 -14 -5 -28 -3 -31 3 -2 8 8 11 23 4 14 5 28 3 31 -3
2 -8 -8 -11 -23z"/>
<path d="M301 2116 c2 -2 18 -6 34 -10 22 -5 26 -4 15 4 -14 9 -59 15 -49 6z"/>
<path d="M1940 2065 l0 -55 58 2 57 2 -52 3 -53 4 0 45 0 44 51 0 c28 0 60 -5
72 -11 21 -10 21 -10 3 5 -13 11 -40 16 -78 16 l-58 0 0 -55z"/>
<path d="M390 2090 c8 -5 20 -10 25 -10 6 0 3 5 -5 10 -8 5 -19 10 -25 10 -5
0 -3 -5 5 -10z"/>
<path d="M2253 2050 c0 -43 2 -49 8 -27 4 15 4 39 0 55 -6 21 -8 15 -8 -28z"/>
<path d="M2765 2078 c4 -13 11 -27 16 -33 5 -5 4 5 -2 23 -12 36 -24 44 -14
10z"/>
<path d="M228 2083 c38 -4 45 -8 54 -34 10 -30 52 -59 86 -59 27 0 72 38 72
61 0 10 -4 19 -9 19 -5 0 -7 -8 -4 -19 5 -21 -30 -51 -59 -51 -35 0 -68 23
-78 56 -11 33 -14 34 -58 32 l-47 -1 43 -4z"/>
<path d="M133 2073 c9 -2 25 -2 35 0 9 3 1 5 -18 5 -19 0 -27 -2 -17 -5z"/>
<path d="M2091 2063 c0 -12 -9 -27 -18 -32 -10 -6 -13 -11 -7 -11 18 0 36 27
31 47 -4 14 -5 14 -6 -4z"/>
<path d="M2321 2049 c-6 -18 -9 -34 -7 -36 2 -2 9 10 16 27 7 17 10 33 8 36
-3 3 -11 -9 -17 -27z"/>
<path d="M121 2050 c-1 -24 34 -93 57 -113 25 -23 88 -46 122 -46 14 1 1 7
-28 14 -73 17 -103 42 -129 106 -12 30 -22 47 -22 39z"/>
<path d="M2796 2000 c3 -14 11 -32 16 -40 6 -10 7 -7 2 10 -3 14 -11 32 -16
40 -6 10 -7 7 -2 -10z"/>
<path d="M2291 1969 c-6 -18 -9 -34 -7 -36 2 -2 9 10 15 28 6 18 9 34 7 36 -2
2 -9 -10 -15 -28z"/>
<path d="M2216 1952 l-29 -37 34 32 c18 18 31 35 28 37 -3 3 -18 -12 -33 -32z"/>
<path d="M2551 1983 l86 -4 12 -39 12 -40 89 0 c50 0 90 3 90 8 0 4 -5 14 -11
22 -9 13 -10 12 -5 -3 5 -16 -1 -18 -76 -15 l-81 3 -12 35 -12 35 -89 1 -89 0
86 -3z"/>
<path d="M534 1948 l-29 -33 33 29 c17 17 32 31 32 33 0 8 -8 1 -36 -29z"/>
<path d="M2440 1919 c0 -7 -29 -9 -85 -7 -47 2 -85 0 -85 -4 0 -5 41 -8 90 -8
73 0 90 3 90 15 0 8 -2 15 -5 15 -3 0 -5 -5 -5 -11z"/>
<path d="M465 1910 c-13 -6 -15 -9 -5 -9 8 0 22 4 30 9 18 12 2 12 -25 0z"/>
<path d="M408 1893 c6 -2 18 -2 25 0 6 3 1 5 -13 5 -14 0 -19 -2 -12 -5z"/>
</g>
</svg>
